<svg width="97" height="71" viewBox="0 0 97 71" fill="none" xmlns="http://www.w3.org/2000/svg">
<path d="M50.8757 57.0019C50.8757 55.4737 50.8757 53.9605 50.8757 52.4473C50.8669 50.3155 49.7288 48.9168 47.6282 48.5111C47.243 48.4377 47.1715 48.2373 47.1263 47.9374C46.539 44.2265 45.0747 40.8901 42.5927 38.059C41.4759 36.7847 40.1533 35.6784 38.8646 34.5646C37.3814 33.3125 36.1059 31.8368 35.0852 30.1916C36.4579 29.7162 37.8081 29.6727 39.0127 30.4169C40.0642 31.0652 41.0204 31.8928 41.9439 32.7154C42.8361 33.5168 43.791 34.1191 45.0057 34.2634C46.7034 34.4713 48.1276 33.92 49.3272 32.744C50.2474 31.8405 51.1643 30.9312 52.0778 30.0162C53.8132 28.2739 53.8157 26.1011 52.0715 24.3477C50.5297 22.7971 48.9767 21.2573 47.4124 19.7283C47.0792 19.4223 46.8696 19.0065 46.8226 18.5586C46.3546 14.9161 43.4346 11.8946 39.7957 11.2163C39.7141 11.2014 39.6338 11.1802 39.4594 11.1429V10.4958C39.4594 8.48478 39.4594 6.47251 39.4594 4.46025C39.4594 3.3278 39.0039 2.87607 37.8545 2.88105C35.4917 2.891 33.1251 2.83127 30.7686 2.95322C27.4609 3.12496 24.4582 4.32211 21.6738 6.03696C17.2681 8.75358 13.9165 12.4247 11.6767 17.0802C10.4219 19.6935 9.76941 22.4624 9.34152 25.2935C8.49452 30.9047 9.20851 36.369 10.9577 41.7202C11.2149 42.5589 11.5914 42.8414 12.4698 42.8501C14.4348 42.8501 16.4011 42.8613 18.3673 42.8426C18.7727 42.8426 18.932 42.9534 19.0387 43.3603C19.4364 44.886 19.5845 46.4154 19.3298 47.9785C19.2783 48.2958 19.1867 48.4762 18.8279 48.5497C16.9005 48.9479 15.7611 50.3529 15.7323 52.3079C15.7164 53.7183 15.7164 55.1286 15.7323 56.539C15.7385 56.9123 15.6206 57.0766 15.2692 57.2085C12.2426 58.3434 10.3654 60.4864 9.65899 63.6186C9.54171 64.1656 9.47618 64.7222 9.46323 65.2812C9.43939 66.0553 9.94257 66.558 10.7306 66.619C10.8975 66.6327 11.0656 66.619 11.2325 66.619H55.3478C56.8159 66.619 57.2601 66.1212 57.097 64.6739C56.6904 61.0418 54.7752 58.5529 51.3512 57.2073C51.1981 57.1438 51.0476 57.0753 50.8757 57.0019ZM21.7867 48.4153C22.4593 45.1797 21.3249 42.2515 20.4127 39.2848C19.6937 36.9452 19.0086 34.5994 18.799 32.1454C18.5242 28.921 18.799 25.7228 19.9133 22.7013C21.7164 17.8019 25.4018 14.9148 30.4825 13.7413C31.662 13.4688 31.9243 13.1664 31.9243 11.9493C31.9243 10.6003 31.9117 9.2526 31.9243 7.90362C31.9419 6.63056 32.7525 5.58398 33.9696 5.44087C34.9308 5.32762 35.9158 5.41722 36.9385 5.41722V6.12034C36.9385 8.09154 36.9385 10.0627 36.9385 12.0327C36.9385 13.0494 37.3852 13.5074 38.4066 13.5795C41.7469 13.8147 44.1185 16.1331 44.367 19.4284C44.4009 20.0128 44.6617 20.5614 45.0948 20.9591C46.8377 22.6615 48.5643 24.3826 50.2897 26.1049C51.0538 26.8677 51.0626 27.5011 50.316 28.2553C49.3937 29.1886 48.4664 30.1219 47.519 31.0266C46.3634 32.1354 44.9454 32.1155 43.7847 31.0005C43.3644 30.5961 42.9653 30.1692 42.5299 29.7822C40.7155 28.1744 38.6488 27.1216 36.1555 27.4439C35.0187 27.592 33.8969 28.0226 32.8215 28.4394C31.4199 28.9795 30.0609 28.9945 28.6731 28.4519C28.2264 28.2777 27.7947 28.0674 27.3355 27.9255C26.6792 27.7226 26.0606 27.9952 25.8008 28.5477C25.7297 28.6877 25.6872 28.8402 25.6758 28.9965C25.6643 29.1529 25.6841 29.3099 25.734 29.4586C25.7839 29.6073 25.8629 29.7448 25.9666 29.8631C26.0702 29.9814 26.1964 30.0783 26.3379 30.1481C28.1536 31.0963 30.0647 31.6414 32.1326 31.2121C32.5931 31.1175 32.8089 31.2382 33.031 31.6053C34.2407 33.5964 35.8255 35.2528 37.6036 36.766C38.9136 37.8798 40.1947 39.0707 41.2701 40.401C43.146 42.7207 44.2139 45.4348 44.6656 48.4165L21.7867 48.4153ZM54.4431 64.1127H12.1561C12.1559 64.046 12.1609 63.9795 12.1711 63.9136C12.8512 61.0638 15.3144 59.1735 18.4201 59.1573C21.5257 59.1411 24.6514 59.1573 27.7684 59.1573C27.9562 59.1635 28.1443 59.1598 28.3318 59.1461C29.0295 59.0714 29.5226 58.5662 29.5339 57.9303C29.5452 57.2944 29.032 56.7468 28.3054 56.6771C28.1185 56.6597 27.929 56.6684 27.7408 56.6684H18.2419C18.2419 55.2871 18.2419 53.9841 18.2419 52.6862C18.2419 51.3397 18.6396 50.944 19.9986 50.944H42.5312C43.9943 50.944 45.4586 50.934 46.923 50.944C47.8654 50.9527 48.3435 51.4418 48.3623 52.3726C48.3761 53.016 48.3623 53.6594 48.3623 54.3027V56.6672C45.1136 56.6672 41.9628 56.6672 38.8006 56.6672C38.5302 56.6592 38.2597 56.6835 37.9951 56.7393C37.7279 56.8043 37.4914 56.9583 37.3251 57.1755C37.1588 57.3928 37.0728 57.6601 37.0816 57.9328C37.1205 58.5015 37.4103 58.9184 37.98 59.0739C38.2439 59.1346 38.5148 59.1605 38.7856 59.1511C41.7344 59.1511 44.6832 59.1511 47.632 59.1586C48.2171 59.1535 48.8019 59.1872 49.3824 59.2593C51.9008 59.6053 54.1193 61.7433 54.4431 64.1127ZM29.372 11.4179C29.16 11.4802 28.9805 11.5424 28.8011 11.5884C24.2185 12.905 20.7239 15.613 18.4665 19.7756C16.5956 23.2252 16.2078 27.0233 16.2204 30.8674C16.2342 33.9026 16.9871 36.8146 17.888 39.6917C17.952 39.8946 17.9997 40.1024 18.0612 40.3301H13.1674C11.0606 33.859 10.8523 28.1346 12.6893 21.585C14.6293 14.6709 19.1265 9.81136 25.6452 6.77616C27.0097 6.13416 28.4715 5.7192 29.9718 5.54789C29.0332 7.46558 29.5841 9.45047 29.372 11.4179Z" fill="white"/>
<path d="M38.3335 21.5614C38.7514 21.5614 39.1718 21.5851 39.5884 21.5552C40.3174 21.5029 40.8319 20.9703 40.8281 20.3107C40.8243 19.6512 40.3074 19.1148 39.5733 19.0862C38.7388 19.0526 37.9006 19.0514 37.0637 19.0862C36.7348 19.0905 36.4208 19.2226 36.1891 19.4542C35.9575 19.6857 35.8268 19.9983 35.8252 20.3244C35.8252 20.9803 36.3472 21.5029 37.08 21.5527C37.4953 21.5851 37.9157 21.5627 38.3335 21.5614Z" fill="white"/>
<path d="M32.0588 57.1566C32.0561 57.4012 32.1266 57.6411 32.2615 57.8459C32.3963 58.0507 32.5894 58.2112 32.8164 58.3071C33.0433 58.403 33.2938 58.4299 33.5361 58.3845C33.7785 58.3391 34.0018 58.2234 34.1778 58.052C34.3538 57.8806 34.4745 57.6612 34.5247 57.4218C34.5749 57.1823 34.5523 56.9334 34.4598 56.7066C34.3672 56.4799 34.2089 56.2855 34.0049 56.148C33.8008 56.0106 33.5603 55.9363 33.3136 55.9346C32.987 55.9419 32.6755 56.0723 32.4424 56.2993C32.2093 56.5263 32.0721 56.8329 32.0588 57.1566Z" fill="white"/>
<rect x="51.1992" y="18.417" width="4.5462" height="1.52892" rx="0.76446" transform="rotate(-120 51.1992 18.417)" fill="white"/>
<rect x="58.5234" y="16.0459" width="4.5462" height="1.52892" rx="0.76446" transform="rotate(-90 58.5234 16.0459)" fill="white"/>
<rect x="65.1719" y="18.9648" width="4.5462" height="1.52892" rx="0.76446" transform="rotate(-56.0829 65.1719 18.9648)" fill="white"/>
<path d="M74.1977 53.6308C74.0979 53.6884 73.9878 53.7255 73.8735 53.7401C73.7593 53.7547 73.6434 53.7464 73.5324 53.7157C73.4214 53.685 73.3176 53.6326 73.2271 53.5614C73.1366 53.4902 73.0612 53.4017 73.0052 53.3011C72.9028 53.101 72.8797 52.8697 72.9406 52.6533C73.0015 52.4369 73.1419 52.2516 73.3337 52.1344C73.4339 52.0776 73.5444 52.0413 73.6587 52.0276C73.773 52.0139 73.889 52.0231 73.9997 52.0547C74.1105 52.0862 74.2138 52.1395 74.3038 52.2114C74.3937 52.2834 74.4685 52.3725 74.5236 52.4735C74.6326 52.6705 74.6595 52.9025 74.5985 53.1191C74.5374 53.3358 74.3934 53.5197 74.1977 53.6308Z" fill="white"/>
<path fill-rule="evenodd" clip-rule="evenodd" d="M58.6279 38.3906C57.2839 38.8208 56.1193 38.6364 55.2664 37.5255C54.4016 36.3973 54.5029 35.2155 55.2769 34.0722C54.3498 33.5721 53.5925 32.977 52.9842 32.3218C53.519 32.0613 54.0086 31.7225 54.4381 31.3202C55.079 31.9506 55.8549 32.4345 56.7128 32.732L56.7327 32.7375C56.9392 32.793 57.1589 32.771 57.3505 32.6755C58.227 32.1857 59.0959 31.6818 59.9645 31.178C60.271 31.0002 60.5775 30.8224 60.8843 30.6453C61.1699 30.4804 61.4557 30.3161 61.7415 30.1518C62.6467 29.6314 63.5517 29.111 64.4468 28.5745C64.6305 28.4563 64.7624 28.2727 64.8156 28.0609C65.1443 26.2591 64.7486 24.6279 63.6288 23.1673C62.8421 22.1566 61.7599 21.4162 60.5328 21.049C60.4721 21.0308 60.4112 21.0136 60.3501 20.9974C59.1748 20.6838 57.9315 20.7248 56.7773 21.1174C55.8493 21.43 55.0324 21.9581 54.3738 22.6353C53.9431 22.2437 53.4543 21.9149 52.9219 21.6632C54.7349 19.6608 57.4695 18.6751 60.254 19.1983C63.7469 19.8553 66.8528 23.0045 66.6706 27.476C66.714 27.4756 66.7572 27.4756 66.8004 27.4756H66.8004C66.883 27.4756 66.9651 27.4756 67.0468 27.4732C68.2311 27.4418 69.2595 28.1207 69.7238 29.2496C69.9238 29.7577 69.9664 30.3142 69.8461 30.8468C69.7258 31.3795 69.4482 31.8637 69.0493 32.2365C68.7962 32.4698 68.8226 32.6249 68.9794 32.8861C71.4665 37.0447 74.8494 40.5964 78.8821 43.2828C79.0827 43.4065 79.3171 43.464 79.5522 43.4471C81.5108 43.2743 83.1734 43.8716 84.5096 45.3199C84.6909 45.5158 84.8335 45.5337 85.0683 45.4492C85.8514 45.1684 86.7075 45.1667 87.4917 45.4443C88.2759 45.722 88.9402 46.2619 89.3722 46.9728C89.8674 47.7901 90.3389 48.6219 90.81 49.4531L90.8513 49.526C91.1505 50.0548 91.0197 50.5121 90.5139 50.8232C90.3574 50.9189 90.1981 51.009 90.0387 51.0993C89.959 51.1444 89.8793 51.1895 89.7999 51.2354L63.8282 66.2302C62.9812 66.7192 62.6306 66.631 62.1499 65.7741C62.0069 65.5199 61.8591 65.2675 61.7113 65.0152C61.3098 64.3296 60.9081 63.6438 60.6018 62.9191C60.0264 61.5476 60.4967 59.9443 61.6278 58.9857C61.8294 58.8141 61.8931 58.6781 61.8078 58.4037C61.229 56.5332 61.5448 54.8117 62.658 53.2129C62.7935 53.0205 62.8653 52.7905 62.8635 52.5551C62.6061 48.3901 61.5414 44.3147 59.7287 40.5559C59.4867 40.0484 59.2276 39.5493 58.9672 39.0477L58.9672 39.0476C58.8539 38.8294 58.7404 38.6106 58.6279 38.3906ZM63.4804 57.8188L63.9208 57.5645L69.708 54.2233C69.8544 54.1315 70.0123 54.0595 70.1777 54.0093C70.3755 53.9561 70.5859 53.9772 70.7693 54.0684C70.9527 54.1597 71.0964 54.3149 71.1732 54.5047C71.2516 54.6863 71.2644 54.8894 71.2096 55.0793C71.1547 55.2693 71.0356 55.4343 70.8726 55.5461C70.7525 55.627 70.6284 55.7017 70.5007 55.7699L63.1352 60.0223C62.2979 60.5057 61.8625 61.3814 62.1999 62.2209C62.4169 62.7581 62.7278 63.2575 63.0385 63.7565L63.0385 63.7565C63.1756 63.9767 63.3127 64.1969 63.4416 64.4201L88.9495 49.6931C88.8332 49.4916 88.7186 49.291 88.6046 49.0914C88.3783 48.6952 88.1544 48.3032 87.9242 47.9171C87.3704 46.9962 86.2703 46.7014 85.3213 47.2152C85.1009 47.3345 84.8847 47.4619 84.6687 47.5893L84.6687 47.5893L84.6683 47.5896C84.5604 47.6532 84.4526 47.7168 84.3442 47.7793L77.7303 51.5979C77.2455 51.8777 76.8654 51.8547 76.5409 51.539C76.104 51.1138 76.2419 50.457 76.857 50.1009C78.8213 48.9614 80.7885 47.8257 82.7584 46.6937L83.1823 46.4489C83.1523 46.4143 83.1267 46.3837 83.1036 46.3561C83.0576 46.3011 83.0216 46.258 82.9807 46.2196C81.6815 44.9985 79.7861 44.8051 78.1588 45.7426C73.8975 48.1976 69.6386 50.6565 65.3819 53.1194C65.1196 53.2721 64.871 53.4472 64.6388 53.6426C63.4534 54.6287 62.9375 56.4637 63.4804 57.8188ZM60.1132 37.523C62.5957 41.8749 64.0592 46.5516 64.5488 51.5671L77.2115 44.2563C73.1601 41.3853 69.7688 37.682 67.2645 33.3942L60.1132 37.523ZM62.7763 33.9622L67.5466 31.2081C68.1825 30.841 68.3529 30.2285 67.9938 29.6742C67.663 29.1637 67.0935 29.0677 66.4692 29.4271L58.5024 34.0267C58.3466 34.1167 58.1901 34.2056 58.0336 34.2946C57.6619 34.5058 57.2902 34.7171 56.9267 34.9424C56.3604 35.2945 56.2462 35.9577 56.6391 36.4784C56.9718 36.9176 57.5148 36.999 58.0763 36.6768C59.6466 35.7735 61.2133 34.8687 62.7763 33.9622Z" fill="white"/>
</svg>
